<svg width="22" height="40" viewBox="0 0 22 40" fill="none" xmlns="http://www.w3.org/2000/svg">
<path fill-rule="evenodd" clip-rule="evenodd" d="M11 0C11.5166 0 11.9355 0.432058 11.9355 0.965028V6.92181H19.3871C19.9038 6.92181 20.3226 7.35387 20.3226 7.88684C20.3226 8.41981 19.9038 8.85187 19.3871 8.85187H11.9355V19.035H15.1936C16.9987 19.035 18.73 19.7748 20.0064 21.0916C21.2829 22.4084 22 24.1943 22 26.0566C22 27.9188 21.2829 29.7048 20.0064 31.0216C18.73 32.3384 16.9987 33.0782 15.1936 33.0782H11.9355V39.035C11.9355 39.5679 11.5166 40 11 40C10.4834 40 10.0646 39.5679 10.0646 39.035V33.0782H0.935456C0.418818 33.0782 0 32.6461 0 32.1132C0 31.5802 0.418818 31.1481 0.935456 31.1481H10.0646V20.965H6.80644C5.00126 20.965 3.27002 20.2253 1.99356 18.9085C0.717106 17.5916 0 15.8057 0 13.9434C0 12.0812 0.717105 10.2952 1.99356 8.9784C3.27002 7.66159 5.00126 6.92181 6.80644 6.92181H10.0646V0.965028C10.0646 0.432058 10.4834 0 11 0ZM10.0646 8.85187H6.80644C5.49746 8.85187 4.24209 9.3883 3.31649 10.3432C2.3909 11.298 1.87091 12.5931 1.87091 13.9434C1.87091 15.2938 2.3909 16.5888 3.31649 17.5437C4.24209 18.4985 5.49746 19.035 6.80644 19.035H10.0646V8.85187ZM11.9355 20.965V31.1481H15.1936C16.5025 31.1481 17.7579 30.6117 18.6835 29.6569C19.6091 28.702 20.1291 27.407 20.1291 26.0566C20.1291 24.7062 19.6091 23.4112 18.6835 22.4563C17.7579 21.5015 16.5025 20.965 15.1936 20.965H11.9355Z" fill="#257939"/>
</svg>
