<svg width="40" height="38" viewBox="0 0 40 38" fill="none" xmlns="http://www.w3.org/2000/svg">
<path fill-rule="evenodd" clip-rule="evenodd" d="M20 0C20.3801 0 20.7273 0.215457 20.8961 0.556013L26.5342 11.9346L39.1441 13.7707C39.5211 13.8256 39.8342 14.09 39.9515 14.4525C40.0688 14.815 39.9698 15.2126 39.6964 15.4779L30.5751 24.3282L32.7275 36.8303C32.7921 37.2053 32.6383 37.5844 32.3307 37.8084C32.0231 38.0324 31.615 38.0624 31.278 37.8858L20 31.9775L8.72209 37.8858C8.38504 38.0624 7.97699 38.0324 7.6694 37.8084C7.36181 37.5844 7.20797 37.2053 7.27253 36.8303L9.42501 24.3282L0.303668 15.4779C0.0302243 15.2126 -0.0686939 14.815 0.048573 14.4525C0.16584 14.09 0.478913 13.8256 0.855942 13.7707L13.4659 11.9346L19.104 0.556013C19.2727 0.215457 19.62 0 20 0ZM20 3.25232L15.0251 13.2926C14.8792 13.5869 14.5982 13.7908 14.2731 13.8381L3.15428 15.4571L11.1964 23.2602C11.4334 23.4901 11.5416 23.8222 11.4855 24.1476L9.58697 35.1749L19.536 29.9628C19.8266 29.8105 20.1734 29.8105 20.4641 29.9628L30.4131 35.1749L28.5145 24.1476C28.4585 23.8222 28.5667 23.4901 28.8037 23.2602L36.8458 15.4571L25.7269 13.8381C25.4019 13.7908 25.1208 13.5869 24.975 13.2926L20 3.25232Z" fill="#257939"/>
</svg>
