<svg width="207" height="32" viewBox="0 0 207 32" fill="none" xmlns="http://www.w3.org/2000/svg">
<path d="M30.3931 0.00610352H36.1018V12.8061H31.321V6.37846L18.0478 22.1711L4.7808 6.37846V31.8617H0V0.00610352H5.66568L18.054 14.7356L30.3931 0.00610352Z" fill="#267939"/>
<path d="M87.5968 7.6136H82.816V5.75782C82.816 5.22935 82.3736 4.78691 81.8451 4.78691H61.4929C60.9645 4.78691 60.522 5.22935 60.522 5.75782V12.5726C60.522 13.1011 60.9645 13.5435 61.4929 13.5435H81.8451C85.0282 13.5435 87.5968 16.1121 87.5968 19.2952V26.11C87.5968 29.2931 85.0282 31.8617 81.8451 31.8617H61.4929C58.3098 31.8617 55.7412 29.2931 55.7412 26.11V24.2542H60.522V26.11C60.522 26.6385 60.9645 27.0809 61.4929 27.0809H81.8451C82.3736 27.0809 82.816 26.6385 82.816 26.11V19.2952C82.816 18.7668 82.3736 18.3243 81.8451 18.3243H61.4929C58.3098 18.3243 55.7412 15.7557 55.7412 12.5726V5.75782C55.7412 2.57471 58.3098 0.00610352 61.4929 0.00610352H81.8451C85.0282 0.00610352 87.5968 2.57471 87.5968 5.75782V7.6136Z" fill="#267939"/>
<path d="M58.5 0.00610352H36.8389V4.78691H55.0833C55.3967 2.7099 56.6995 0.946287 58.5 0.00610352Z" fill="white"/>
<path d="M31.3213 13.5435V31.8617H36.1021V18.3243H53.7075V13.5435H31.3213Z" fill="white"/>
<path d="M93.2314 31.7635H94.7738V26.3374H99.3949V25.0347H94.7738V20.9483H100.224V19.6394H93.2314V31.7635Z" fill="white"/>
<path d="M103.42 19.6394H101.878V31.7635H108.711V30.4607H103.42V19.6394Z" fill="white"/>
<path d="M114.377 19.4182C111.335 19.4182 109.196 21.7717 109.196 25.6554C109.196 29.539 111.335 31.9847 114.377 31.9847C117.418 31.9847 119.557 29.539 119.557 25.6554C119.557 21.7717 117.418 19.4182 114.377 19.4182ZM114.377 30.6267C112.213 30.6267 110.788 28.6787 110.788 25.6554C110.788 22.632 112.213 20.7701 114.377 20.7701C116.54 20.7701 117.965 22.632 117.965 25.6554C117.965 28.6787 116.54 30.6267 114.377 30.6267Z" fill="white"/>
<path d="M126.163 19.4182C123.121 19.4182 120.982 21.7717 120.982 25.6554C120.982 29.539 123.121 31.9847 126.163 31.9847C129.204 31.9847 131.343 29.539 131.343 25.6554C131.343 21.7717 129.204 19.4182 126.163 19.4182ZM126.163 30.6267C124 30.6267 122.574 28.6787 122.574 25.6554C122.574 22.632 124 20.7701 126.163 20.7701C128.326 20.7701 129.751 22.632 129.751 25.6554C129.751 28.6787 128.326 30.6267 126.163 30.6267Z" fill="white"/>
<path d="M141.513 23.0499C141.513 20.5243 139.743 19.6394 137.273 19.6394H133.476V31.7635H135.018V26.6386H137.212L140.131 31.7635H141.882L138.791 26.4665C140.438 26.0609 141.519 24.9425 141.519 23.056L141.513 23.0499ZM135.018 20.8868H137.052C138.938 20.8868 139.977 21.4522 139.977 23.0499C139.977 24.6476 138.938 25.385 137.052 25.385H135.018V20.8868Z" fill="white"/>
<path d="M151.713 25.2989L149.987 24.5492C149.034 24.1498 147.977 23.7135 147.977 22.546C147.977 21.4645 148.874 20.7762 150.239 20.7762C151.357 20.7762 152.248 21.2125 152.992 21.913L153.809 20.9237C152.961 20.045 151.677 19.4243 150.239 19.4243C148.039 19.4243 146.423 20.7885 146.423 22.6443C146.423 24.5001 147.75 25.2866 148.874 25.7659L150.614 26.5341C151.756 27.0318 152.635 27.4312 152.635 28.6664C152.635 29.9015 151.689 30.6389 150.103 30.6389C148.844 30.6389 147.633 30.0429 146.761 29.1395L145.839 30.1965C146.896 31.3026 148.377 31.997 150.079 31.997C152.629 31.997 154.208 30.4669 154.208 28.5496C154.208 26.7491 153.115 25.9134 151.713 25.3112V25.2989Z" fill="white"/>
<path d="M160.581 19.4182C157.533 19.4182 155.4 21.7717 155.4 25.6554C155.4 29.539 157.539 31.9847 160.581 31.9847C163.622 31.9847 165.761 29.539 165.761 25.6554C165.761 21.7717 163.622 19.4182 160.581 19.4182ZM160.581 30.6267C158.418 30.6267 156.992 28.6787 156.992 25.6554C156.992 22.632 158.418 20.7701 160.581 20.7701C162.744 20.7701 164.169 22.632 164.169 25.6554C164.169 28.6787 162.744 30.6267 160.581 30.6267Z" fill="white"/>
<path d="M175.071 26.7983C175.071 29.711 173.805 30.6266 172.195 30.6266C170.585 30.6266 169.38 29.711 169.38 26.7983V19.6394H167.838V26.7553C167.838 30.6451 169.718 31.9847 172.195 31.9847C174.671 31.9847 176.545 30.6451 176.545 26.7553V19.6394H175.064V26.7983H175.071Z" fill="white"/>
<path d="M187.367 23.0499C187.367 20.5243 185.597 19.6394 183.127 19.6394H179.329V31.7635H180.872V26.6386H183.065L185.984 31.7635H187.735L184.645 26.4665C186.291 26.0609 187.373 24.9425 187.373 23.056L187.367 23.0499ZM180.872 20.8868H182.905C184.792 20.8868 185.831 21.4522 185.831 23.0499C185.831 24.6476 184.792 25.385 182.905 25.385H180.872V20.8868Z" fill="white"/>
<path d="M194.003 30.6267C191.705 30.6267 190.249 28.7156 190.249 25.6677C190.249 22.6198 191.772 20.7701 194.065 20.7701C195.085 20.7701 195.89 21.231 196.529 21.9131L197.377 20.9114C196.67 20.131 195.515 19.4182 194.04 19.4182C190.961 19.4182 188.663 21.8025 188.663 25.7107C188.663 29.6189 190.924 31.9847 193.948 31.9847C195.521 31.9847 196.707 31.3456 197.666 30.2334L196.818 29.2686C196.043 30.1289 195.164 30.6328 194.009 30.6328L194.003 30.6267Z" fill="white"/>
<path d="M200.972 26.0486H205.562V24.7459H200.972V20.9483H206.417V19.6394H199.43V31.7635H206.601V30.4607H200.972V26.0486Z" fill="white"/>
<path d="M106.844 8.77498V17.7159H111.422V0.227295H106.88L102.302 7.73033L97.7306 0.227295H93.1895V17.7159H97.7675V8.73811L101.663 15.1596H102.942L106.844 8.77498Z" fill="white"/>
<path d="M119.219 0.227295H114.647V17.7159H119.219V0.227295Z" fill="white"/>
<path d="M136.911 8.8733C136.911 0.227295 129.543 0.227295 127.054 0.227295H122.445V17.7159H127.288C129.911 17.7159 136.904 17.7159 136.904 8.86715L136.911 8.8733ZM127.023 4.56566H127.122C129.242 4.56566 132.197 4.56566 132.197 8.8733C132.197 13.1809 129.574 13.3776 127.355 13.3776H127.017V4.56566H127.023Z" fill="white"/>
<path d="M150.097 7.86552L153.661 17.7159H156.924L160.925 0.227295H156.248L154.571 8.77498L151.677 0.227295H148.512L145.654 8.77498L143.94 0.227295H139.264L143.264 17.7159H146.527L150.097 7.86552Z" fill="white"/>
<path d="M175.789 13.3776H167.985V10.9933H173.835V6.88847H167.985V4.56566H175.789V0.227295H163.413V17.7159H175.789V13.3776Z" fill="white"/>
<path d="M184.933 13.7156C183.52 13.7156 181.806 13.1441 180.362 12.0995L178.444 15.9032C180.226 17.2121 182.549 17.9557 185.136 17.9557C189.038 17.9557 191.49 15.9401 191.49 12.6771C191.49 6.79021 183.588 7.15891 183.588 5.11263C183.588 4.63947 184.061 4.24004 185.136 4.24004C186.685 4.24004 188.098 4.87912 189.376 5.65339L191.226 1.91724C189.511 0.774269 187.693 0 185.173 0C181.308 0 178.917 2.15075 178.917 5.07576C178.917 10.6616 186.82 10.7906 186.82 12.7754C186.82 13.3469 186.212 13.7156 184.94 13.7156H184.933Z" fill="white"/>
<path d="M194.624 0.227295V4.60253H198.526V17.7159H203.098V4.60253H207V0.227295H194.624Z" fill="white"/>
</svg>
